<svg width="44" height="44" viewBox="0 0 44 44" fill="none" xmlns="http://www.w3.org/2000/svg">
<g clip-path="url(#clip0)">
<path d="M41.3363 28.531H29.7345C27.6021 28.531 25.8672 26.7961 25.8672 24.6637V24.1403C25.8672 20.4379 26.9473 17.1214 28.9085 14.8016C30.6711 12.7167 31.3786 9.95726 30.8495 7.23084C30.1657 3.70786 27.2863 0.808536 23.6852 0.152822C18.0401 -0.875095 12.9765 3.41558 12.9765 9.02284C12.9765 10.9224 13.5641 12.7372 14.676 14.2712C16.9698 17.436 18.1328 20.6613 18.1328 23.8575V24.554C18.1328 26.7841 16.4342 28.5311 14.2656 28.5311H2.6638V38.8438H5.24197V44.0001H38.7582V38.8438H41.3363V28.531H41.3363ZM16.7635 12.7582C15.9726 11.667 15.5546 10.3754 15.5546 9.02284C15.5546 5.12345 19.0551 1.93038 23.2232 2.68931C25.737 3.14702 27.8322 5.21652 28.3185 7.72207C28.7037 9.70675 28.214 11.6298 26.9396 13.1372C24.5856 15.9216 23.2891 19.8292 23.289 24.1403V24.6637C23.289 26.1136 23.7705 27.453 24.5816 28.531H19.4052C20.2515 27.3999 20.7108 26.0172 20.7108 24.5539V23.8575C20.7109 20.1066 19.3828 16.3723 16.7635 12.7582ZM36.1799 41.4219H7.82006V38.8437H36.1799V41.4219ZM38.7581 36.2655H5.24189V31.1092H38.7581V36.2655Z" fill="white"/>
</g>
<defs>
<clipPath id="clip0">
<rect width="44" height="44" fill="white"/>
</clipPath>
</defs>
</svg>
