<svg width="44" height="44" viewBox="0 0 44 44" fill="none" xmlns="http://www.w3.org/2000/svg">
<path d="M7.07776 44V41.7509H8.1127V39.1711H7.07776V36.9222H4.82928V35.2021H2.24914V36.9222H-3.8147e-06V44H7.07776ZM4.49795 41.4202H2.5798V39.502H4.49795V41.4202Z" fill="white"/>
<path d="M36.9222 7.07843H39.1707V8.11304H41.7505V7.07843H44V0.000671387H36.9222V2.24982H35.2018V4.82962H36.9222V7.07843ZM39.502 2.58047H41.4202V4.49863H39.502V2.58047Z" fill="white"/>
<path d="M20.1523 41.7509H17.1425V39.1711H20.1523V41.7509Z" fill="white"/>
<path d="M26.1723 41.7509H23.1622V39.1711H26.1723V41.7509Z" fill="white"/>
<path d="M32.192 41.7509H29.1822V39.1711H32.192V41.7509Z" fill="white"/>
<path d="M14.1327 41.7509H11.1229V39.1711H14.1327V41.7509Z" fill="white"/>
<path d="M26.1723 4.82959H23.1622V2.24945H26.1723V4.82959Z" fill="white"/>
<path d="M32.192 4.82959H29.1822V2.24945H32.192V4.82959Z" fill="white"/>
<path d="M14.1327 4.82959H11.1229V2.24945H14.1327V4.82959Z" fill="white"/>
<path d="M20.1523 4.82959H17.1425V2.24945H20.1523V4.82959Z" fill="white"/>
<path d="M2.24948 8.11304H4.82928V7.07843H7.07776V4.82962H8.1127V2.24948H7.07776V0.000671387H-3.8147e-06V7.07843H2.24948V8.11304ZM2.5798 2.58047H4.49795V4.49863H2.5798V2.58047Z" fill="white"/>
<path d="M4.82928 14.1331H2.24948V11.1232H4.82928V14.1331Z" fill="white"/>
<path d="M4.82928 26.1727H2.24948V23.1626H4.82928V26.1727Z" fill="white"/>
<path d="M4.82928 32.1923H2.24948V29.1824H4.82928V32.1923Z" fill="white"/>
<path d="M4.82928 20.1527H2.24948V17.1429H4.82928V20.1527Z" fill="white"/>
<path d="M41.7505 14.1331H39.1707V11.1232H41.7505V14.1331Z" fill="white"/>
<path d="M41.7505 26.1727H39.1707V23.1626H41.7505V26.1727Z" fill="white"/>
<path d="M41.7505 32.1923H39.1707V29.1824H41.7505V32.1923Z" fill="white"/>
<path d="M41.7505 20.1527H39.1707V17.1429H41.7505V20.1527Z" fill="white"/>
<path d="M41.7505 35.2021H39.1707V36.9222H36.9222V39.1711H35.2018V41.7509H36.9222V44H44V36.9222H41.7505V35.2021ZM41.4202 41.4202H39.502V39.502H41.4202V41.4202Z" fill="white"/>
<path d="M35.7591 8.31204H8.32855V35.7426H35.7591V8.31204ZM33.1793 33.1628H10.9087V10.8918H33.1793V33.1628Z" fill="white"/>
</svg>
