<svg width="44" height="44" viewBox="0 0 44 44" fill="none" xmlns="http://www.w3.org/2000/svg">
<path d="M25.5436 7.08682H18.4564V0H25.5436V7.08682ZM21.0396 4.50366H22.9604V2.58316H21.0396V4.50366Z" fill="white"/>
<path d="M25.5436 44H18.4564V36.9132H25.5436V44ZM21.0396 41.4169H22.9604V39.4964H21.0396V41.4169Z" fill="white"/>
<path d="M44 25.5436H36.9132V18.4568H44V25.5436ZM39.4963 22.9604H41.4168V21.0399H39.4963V22.9604Z" fill="white"/>
<path d="M7.08682 25.5436H0V18.4568H7.08682V25.5436ZM2.58316 22.9604H4.50366V21.0399H2.58316V22.9604Z" fill="white"/>
<path d="M29.1832 40.4682L28.2412 38.0626C29.1248 37.7169 29.9861 37.2935 30.8022 36.8048L32.1295 39.021C31.1909 39.583 30.1996 40.0701 29.1832 40.4682ZM34.7956 37.1082L33.1222 35.1404C33.8463 34.5247 34.524 33.844 35.1377 33.1175L37.1112 34.7839C36.4066 35.6188 35.6275 36.4006 34.7956 37.1082ZM39.0143 32.1104L36.7933 30.7915C37.2791 29.9734 37.699 29.1104 38.0418 28.2255L40.4504 29.1584C40.0563 30.1765 39.5732 31.1698 39.0143 32.1104Z" fill="white"/>
<path d="M38.0253 15.7343C37.6806 14.8504 37.2583 13.9883 36.7708 13.1719L38.9884 11.8473C39.5494 12.7862 40.0348 13.7782 40.4319 14.795L38.0253 15.7343ZM35.1095 10.8506C34.4945 10.1258 33.8147 9.44705 33.089 8.83273L34.758 6.86087C35.5919 7.5665 36.3727 8.34665 37.0793 9.17917L35.1095 10.8506ZM30.7656 7.17407C29.9482 6.68765 29.0855 6.26636 28.2013 5.92261L29.1375 3.51501C30.1547 3.91046 31.1473 4.39487 32.0876 4.9548L30.7656 7.17407Z" fill="white"/>
<path d="M5.8649 15.7889L3.45563 14.8581C3.85175 13.8322 4.33817 12.8315 4.90146 11.8838L7.12241 13.2034C6.63229 14.0276 6.20966 14.8973 5.8649 15.7889ZM8.79248 10.862L6.82162 9.19223C7.53262 8.35266 8.31949 7.56647 9.15973 6.8558L10.8278 8.82834C10.0963 9.44669 9.4115 10.1312 8.79248 10.862ZM13.1706 7.15994L11.8523 4.93832C12.8003 4.3757 13.8014 3.88995 14.8276 3.49451L15.7568 5.90479C14.8648 6.24854 13.9947 6.67084 13.1706 7.15994Z" fill="white"/>
<path d="M14.8863 40.529C13.8581 40.1365 12.855 39.6535 11.9047 39.0935L13.2159 36.8679C14.0421 37.3546 14.9142 37.7746 15.8075 38.1157L14.8863 40.529ZM9.20471 37.1831C8.36212 36.4748 7.57257 35.6906 6.85855 34.8527L8.82471 33.1773C9.44641 33.9067 10.1332 34.5892 10.8671 35.2059L9.20471 37.1831ZM4.93033 32.1655C4.36435 31.2195 3.87491 30.2198 3.47543 29.1943L5.88235 28.2563C6.22946 29.1476 6.65512 30.0167 7.14725 30.8395L4.93033 32.1655Z" fill="white"/>
</svg>
