<svg width="44" height="44" viewBox="0 0 44 44" fill="none" xmlns="http://www.w3.org/2000/svg">
<path d="M44 38.8397V7.74042H33.2934C31.5374 3.21628 27.1375 0 22 0C16.8625 0 12.4626 3.21628 10.7066 7.74042H0V38.8397H14.2606V41.4219H10.389V44H33.611V41.4219H29.7394V38.8397H44ZM30.4692 7.74042H26.6017C26.3677 6.06967 25.9927 4.50836 25.468 3.23138C27.6302 4.07901 29.4094 5.69437 30.4692 7.74042ZM22 2.58014C22.1591 2.62982 22.8016 3.16827 23.4059 5.10925C23.6499 5.8941 23.848 6.78268 23.9967 7.74042H20.0033C20.152 6.78268 20.3501 5.8941 20.5941 5.10925C21.1984 3.16827 21.8409 2.62982 22 2.58014ZM24.2656 10.3185C24.2995 10.9047 24.3176 11.5029 24.3176 12.1091C24.3176 12.7157 24.2995 13.3139 24.2656 13.8997H19.7344C19.7005 13.3139 19.6824 12.7157 19.6824 12.1091C19.6824 11.5029 19.7005 10.9047 19.7344 10.3185H24.2656ZM22 21.6385C21.8409 21.5888 21.1984 21.0503 20.5941 19.1093C20.3501 18.3245 20.152 17.4359 20.0033 16.4778H23.9967C23.848 17.4359 23.6499 18.3245 23.4059 19.1093C22.8016 21.0503 22.1591 21.5888 22 21.6385ZM17.1526 13.8997H12.6382C12.5274 13.3196 12.469 12.7211 12.469 12.1091C12.469 11.4972 12.5274 10.899 12.6382 10.3185H17.1526C17.1207 10.9154 17.1042 11.5146 17.1042 12.1091C17.1042 12.704 17.1204 13.3032 17.1526 13.8997ZM17.3987 16.4778C17.6323 18.1489 18.0073 19.7102 18.532 20.9872C16.3698 20.1396 14.5906 18.5242 13.5308 16.4778H17.3987ZM26.6013 16.4778H30.4692C29.4094 18.5242 27.6302 20.1396 25.468 20.9872C25.9927 19.7102 26.3677 18.1489 26.6013 16.4778ZM31.531 12.1091C31.531 12.7211 31.4726 13.3196 31.3618 13.8997H26.8474C26.8796 13.3032 26.8958 12.704 26.8958 12.1091C26.8958 11.5146 26.8796 10.9154 26.8474 10.3185H31.3618C31.4726 10.899 31.531 11.4972 31.531 12.1091ZM18.532 3.23138C18.0073 4.50803 17.6323 6.06967 17.3987 7.74042H13.5308C14.5906 5.69437 16.3698 4.07901 18.532 3.23138ZM10.0235 10.3185C9.93619 10.903 9.89087 11.5009 9.89087 12.1091C9.89087 18.7864 15.3231 24.2186 22 24.2186C28.6769 24.2186 34.1091 18.7864 34.1091 12.1091C34.1091 11.5009 34.0638 10.903 33.9765 10.3185H41.4219V29.3809H2.57812V10.3185H10.0235ZM2.57812 31.959H41.4219V36.2616H2.57812V31.959ZM27.1613 41.4219H16.8387V38.8397H27.1613V41.4219Z" fill="white"/>
</svg>
